<svg width="27" height="27" viewBox="0 0 27 27" fill="none" xmlns="http://www.w3.org/2000/svg">
<g clip-path="url(#clip0_545_486)">
<path d="M13.3358 0C6.07737 0 0.163086 5.91428 0.163086 13.1727C0.163086 20.4311 6.07737 26.3454 13.3358 26.3454C20.5942 26.3454 26.4413 20.4984 26.5085 13.2399C26.5085 5.91428 20.5942 0 13.3358 0ZM21.8712 16.7347C21.8712 19.2886 20.191 21.2376 17.7043 21.7081C17.1666 21.7753 16.629 21.7753 16.0913 21.7753C15.2176 21.7753 14.2767 21.7753 13.403 21.7753C12.1933 21.7753 11.0507 21.7753 9.841 21.7753C7.01827 21.7753 4.86763 19.6247 4.86763 16.8019C4.86763 14.4497 4.86763 12.0302 4.86763 9.67791C4.86763 6.78798 7.01827 4.70454 9.90821 4.70454C12.2605 4.70454 14.5455 4.70454 16.8978 4.70454C19.7877 4.70454 21.9384 6.85519 21.9384 9.74512C21.8712 12.0302 21.8712 14.3825 21.8712 16.7347Z" fill="white"/>
<path d="M16.8306 6.31738C14.4783 6.31738 12.1261 6.31738 9.77379 6.31738C7.75755 6.31738 6.34619 7.72875 6.34619 9.74498C6.34619 10.9547 6.34619 12.0972 6.34619 13.307C6.34619 14.5167 6.34619 15.7265 6.34619 16.9362C6.34619 18.8852 7.75755 20.2966 9.70658 20.2966C12.1261 20.2966 14.5455 20.2966 16.965 20.2966C18.914 20.2966 20.3254 18.8852 20.3254 16.9362C20.3254 14.5839 20.3254 12.2317 20.3254 9.81218C20.2582 7.66154 18.914 6.31738 16.8306 6.31738ZM13.2686 17.6755C10.7819 17.6755 8.83288 15.6593 8.90009 13.1726C8.90009 10.7531 10.9835 8.73686 13.403 8.80407C15.8897 8.87128 17.8387 10.8875 17.7715 13.307C17.7043 15.7937 15.6881 17.7427 13.2686 17.6755ZM17.9059 9.67777C17.3011 9.67777 16.8306 9.20731 16.8306 8.66965C16.8306 8.06478 17.3011 7.59433 17.9059 7.66154C18.4436 7.66154 18.914 8.13199 18.914 8.66965C18.914 9.20731 18.5108 9.67777 17.9059 9.67777Z" fill="white"/>
<path d="M13.3357 10.3496C11.79 10.3496 10.4458 11.6266 10.4458 13.2395C10.4458 14.8525 11.7227 16.1295 13.3357 16.1295C14.9487 16.1295 16.1585 14.8525 16.1585 13.2395C16.1585 11.6938 14.8815 10.3496 13.3357 10.3496Z" fill="white"/>
</g>
<defs>
<clipPath id="clip0_545_486">
<rect width="26.2782" height="26.2782" fill="white" transform="translate(0.163086)"/>
</clipPath>
</defs>
</svg>
