<svg width="27" height="27" viewBox="0 0 27 27" fill="none" xmlns="http://www.w3.org/2000/svg">
<path d="M13.6279 0C6.37143 0 0.48877 5.88266 0.48877 13.1391C0.48877 20.3956 6.37143 26.2782 13.6279 26.2782C20.8843 26.2782 26.767 20.3956 26.767 13.1391C26.767 5.88266 20.8843 0 13.6279 0ZM10.1487 19.454H7.51169V10.7754H10.1487V19.454ZM8.82337 9.46617C7.92904 9.47486 7.22849 8.77058 7.23967 7.87005C7.25085 6.99684 7.93898 6.32362 8.81467 6.32734C9.69161 6.33231 10.3661 7.01175 10.3661 7.89117C10.3661 8.77058 9.69409 9.45623 8.82212 9.46493L8.82337 9.46617ZM20.2297 19.4478H17.6498C17.6399 19.2491 17.6238 19.0466 17.6225 18.8441C17.6076 17.3474 17.6287 15.8494 17.5716 14.3551C17.5318 13.2944 16.9642 12.8249 15.9891 12.9155C15.3383 12.9764 14.8799 13.3391 14.7309 13.99C14.6414 14.3787 14.6029 14.7862 14.598 15.1861C14.5831 16.586 14.5918 17.9858 14.5918 19.4528H11.9237V10.7592H14.4489V11.9256C15.0725 11.1418 15.7171 10.6648 16.5667 10.563C18.646 10.3145 20.1875 11.1828 20.3092 13.2248C20.4322 15.283 20.3365 17.3536 20.3365 19.4491L20.2297 19.4478Z" fill="white"/>
</svg>
