<svg width="27" height="27" viewBox="0 0 27 27" fill="none" xmlns="http://www.w3.org/2000/svg">
<path d="M9.2301 6.43511C9.19779 6.39634 9.16549 6.37695 9.1138 6.37695C8.4289 6.37695 7.744 6.37695 7.05909 6.37695C7.03971 6.37695 7.01387 6.37695 6.9751 6.37695C7.05263 6.48033 7.12371 6.57079 7.18832 6.66771C9.01042 9.11009 10.826 11.5525 12.6481 13.9949C14.1149 15.9591 15.5751 17.9233 17.0418 19.8941C17.0677 19.9264 17.0935 19.9457 17.1388 19.9457C17.8301 19.9457 18.528 19.9457 19.2193 19.9457C19.2387 19.9457 19.2581 19.9457 19.2839 19.9393C19.2645 19.9134 19.2581 19.9005 19.2452 19.8876C19.0061 19.5645 18.767 19.2415 18.5215 18.9184C17.0289 16.9089 15.5299 14.9059 14.0373 12.8964C12.4349 10.7383 10.8325 8.58673 9.2301 6.43511Z" fill="white"/>
<path d="M13.4621 0.859375C6.68414 0.859375 1.18555 6.35796 1.18555 13.1359C1.18555 19.9138 6.68414 25.4124 13.4621 25.4124C20.24 25.4124 25.7386 19.9138 25.7386 13.1359C25.7386 6.35796 20.2465 0.859375 13.4621 0.859375ZM21.1317 20.8895C19.5874 20.8895 18.0367 20.8895 16.4924 20.8895C16.4407 20.8895 16.4084 20.8766 16.3761 20.8313C14.9352 18.8606 13.4879 16.8835 12.0406 14.9128C12.0277 14.8998 12.0147 14.8805 12.0018 14.8611C11.9824 14.8805 11.9695 14.8934 11.9501 14.9128C10.9098 16.0435 9.87603 17.1742 8.83576 18.305C8.0604 19.1514 7.27858 20.0043 6.50322 20.8507C6.48383 20.8701 6.45799 20.883 6.43214 20.883C5.98631 20.883 5.54694 20.883 5.10111 20.883C5.09465 20.883 5.08819 20.883 5.0688 20.8766C7.1752 18.5828 9.27513 16.289 11.3751 14.0017C9.27513 11.1329 7.1752 8.26406 5.06234 5.3823C5.10757 5.3823 5.13342 5.3823 5.15926 5.3823C6.70352 5.3823 8.24132 5.3823 9.78557 5.3823C9.84372 5.3823 9.87603 5.39523 9.9148 5.44046C11.2717 7.29486 12.635 9.15572 13.9919 11.0101C14.0113 11.036 14.0242 11.0553 14.05 11.0941C14.0694 11.0683 14.0824 11.0553 14.1017 11.036C15.5943 9.40125 17.0933 7.77299 18.5859 6.13828C18.8056 5.89921 19.0253 5.65368 19.2514 5.41461C19.2708 5.39523 19.3031 5.37584 19.329 5.37584C19.7619 5.37584 20.2012 5.37584 20.6341 5.37584C20.6471 5.37584 20.6535 5.37584 20.6858 5.3823C18.6764 7.57269 16.6733 9.75662 14.6703 11.9405C16.8478 14.9192 19.0253 17.8914 21.2157 20.883C21.1769 20.8895 21.151 20.8895 21.1317 20.8895Z" fill="white"/>
</svg>
