<svg width="27" height="27" viewBox="0 0 27 27" fill="none" xmlns="http://www.w3.org/2000/svg">
<g clip-path="url(#clip0_545_491)">
<path d="M13.8259 0C6.55052 0 0.651855 5.89866 0.651855 13.174C0.651855 20.4494 6.55052 26.348 13.8259 26.348C21.1012 26.348 26.9999 20.4494 26.9999 13.174C26.9999 5.89702 21.1012 0 13.8259 0ZM21.9196 16.1233C21.8307 17.2201 20.9991 18.6198 19.8332 18.8224C16.1066 19.1106 11.6834 19.076 7.82016 18.8224C6.61474 18.6709 5.82265 17.2184 5.73373 16.1233C5.546 13.8212 5.546 12.5104 5.73373 10.2082C5.82265 9.11312 6.6345 7.66892 7.82016 7.53718C11.639 7.21606 16.0836 7.28523 19.8332 7.53718C21.177 7.58658 21.8307 8.96821 21.9196 10.0649C22.1057 12.3671 22.1057 13.8212 21.9196 16.1233ZM12.1791 16.4675L17.1194 13.174L12.1791 9.88051V16.4675Z" fill="white"/>
</g>
<defs>
<clipPath id="clip0_545_491">
<rect width="26.348" height="26.348" fill="white" transform="translate(0.651855)"/>
</clipPath>
</defs>
</svg>
